<mxfile host="app.diagrams.net" modified="2024-01-01T00:00:00.000Z" agent="5.0" etag="xxx" version="22.1.16" type="device">
  <diagram name="ikuchio-cup-2025 Architecture" id="architecture">
    <mxGraphModel dx="1422" dy="794" grid="1" gridSize="10" guides="1" tooltips="1" connect="1" arrows="1" fold="1" page="1" pageScale="1" pageWidth="1169" pageHeight="827" math="0" shadow="0">
      <root>
        <mxCell id="0" />
        <mxCell id="1" parent="0" />
        
        <!-- Title -->
        <mxCell id="title" value="ikuchio-cup-2025 システム構成図" style="text;html=1;strokeColor=none;fillColor=none;align=center;verticalAlign=middle;whiteSpace=wrap;rounded=0;fontSize=20;fontStyle=1;" vertex="1" parent="1">
          <mxGeometry x="400" y="20" width="369" height="30" as="geometry" />
        </mxCell>

        <!-- User Device -->
        <mxCell id="user1" value="ユーザー端末 1&#xa;(ブラウザ)" style="rounded=1;whiteSpace=wrap;html=1;fillColor=#dae8fc;strokeColor=#6c8ebf;" vertex="1" parent="1">
          <mxGeometry x="80" y="120" width="120" height="60" as="geometry" />
        </mxCell>
        
        <mxCell id="user2" value="ユーザー端末 2&#xa;(ブラウザ)" style="rounded=1;whiteSpace=wrap;html=1;fillColor=#dae8fc;strokeColor=#6c8ebf;" vertex="1" parent="1">
          <mxGeometry x="80" y="220" width="120" height="60" as="geometry" />
        </mxCell>

        <!-- Frontend -->
        <mxCell id="frontend" value="フロントエンド&#xa;Vue.js + Vite&#xa;(Cloud Run)" style="rounded=1;whiteSpace=wrap;html=1;fillColor=#d5e8d4;strokeColor=#82b366;" vertex="1" parent="1">
          <mxGeometry x="320" y="170" width="120" height="80" as="geometry" />
        </mxCell>

        <!-- Backend API -->
        <mxCell id="backend" value="バックエンド API&#xa;FastAPI (Python)&#xa;(Cloud Run)" style="rounded=1;whiteSpace=wrap;html=1;fillColor=#fff2cc;strokeColor=#d6b656;" vertex="1" parent="1">
          <mxGeometry x="560" y="170" width="120" height="80" as="geometry" />
        </mxCell>

        <!-- Database -->
        <mxCell id="firestore" value="Firestore&#xa;(NoSQL データベース)" style="shape=cylinder3;whiteSpace=wrap;html=1;boundedLbl=1;backgroundOutline=1;size=15;fillColor=#f8cecc;strokeColor=#b85450;" vertex="1" parent="1">
          <mxGeometry x="800" y="120" width="100" height="80" as="geometry" />
        </mxCell>

        <!-- AI Service -->
        <mxCell id="vertexai" value="Vertex AI Studio&#xa;Gemini 2.5 Pro&#xa;(AI サービス)" style="ellipse;whiteSpace=wrap;html=1;fillColor=#e1d5e7;strokeColor=#9673a6;" vertex="1" parent="1">
          <mxGeometry x="800" y="240" width="120" height="80" as="geometry" />
        </mxCell>

        <!-- Cloud Build -->
        <mxCell id="cloudbuild" value="Cloud Build&#xa;CI/CD パイプライン" style="rounded=1;whiteSpace=wrap;html=1;fillColor=#f5f5f5;strokeColor=#666666;" vertex="1" parent="1">
          <mxGeometry x="320" y="350" width="120" height="60" as="geometry" />
        </mxCell>

        <!-- Container Registry -->
        <mxCell id="gcr" value="Container Registry&#xa;Docker イメージ" style="rounded=1;whiteSpace=wrap;html=1;fillColor=#f5f5f5;strokeColor=#666666;" vertex="1" parent="1">
          <mxGeometry x="560" y="350" width="120" height="60" as="geometry" />
        </mxCell>

        <!-- Connections -->
        <!-- Users to Frontend -->
        <mxCell id="edge1" edge="1" parent="1" source="user1" target="frontend">
          <mxGeometry relative="1" as="geometry" />
        </mxCell>
        <mxCell id="edge2" edge="1" parent="1" source="user2" target="frontend">
          <mxGeometry relative="1" as="geometry" />
        </mxCell>

        <!-- Frontend to Backend -->
        <mxCell id="edge3" edge="1" parent="1" source="frontend" target="backend">
          <mxGeometry relative="1" as="geometry" />
        </mxCell>

        <!-- Backend to Firestore -->
        <mxCell id="edge4" edge="1" parent="1" source="backend" target="firestore">
          <mxGeometry relative="1" as="geometry" />
        </mxCell>

        <!-- Backend to Vertex AI -->
        <mxCell id="edge5" edge="1" parent="1" source="backend" target="vertexai">
          <mxGeometry relative="1" as="geometry" />
        </mxCell>

        <!-- Cloud Build to Services -->
        <mxCell id="edge6" edge="1" parent="1" source="cloudbuild" target="frontend">
          <mxGeometry relative="1" as="geometry" />
        </mxCell>
        <mxCell id="edge7" edge="1" parent="1" source="cloudbuild" target="backend">
          <mxGeometry relative="1" as="geometry" />
        </mxCell>
        <mxCell id="edge8" edge="1" parent="1" source="cloudbuild" target="gcr">
          <mxGeometry relative="1" as="geometry" />
        </mxCell>

        <!-- API Endpoints Box -->
        <mxCell id="api-box" value="API エンドポイント&#xa;&#xa;POST /api/users - ユーザー登録&#xa;GET /api/users - ユーザー情報取得&#xa;POST /api/room/{ROOM_ID} - メッセージ送信&#xa;GET /api/room/{ROOM_ID} - メッセージ履歴取得" style="rounded=1;whiteSpace=wrap;html=1;fillColor=#fff2cc;strokeColor=#d6b656;align=left;verticalAlign=top;" vertex="1" parent="1">
          <mxGeometry x="80" y="350" width="200" height="120" as="geometry" />
        </mxCell>

        <!-- Data Flow Box -->
        <mxCell id="dataflow-box" value="24時間ルームシステム&#xa;&#xa;• 毎日00:00にルーム作成&#xa;• ランダムユーザーペアリング&#xa;• AIメッセージ処理&#xa;• 匿名コミュニケーション" style="rounded=1;whiteSpace=wrap;html=1;fillColor=#e1d5e7;strokeColor=#9673a6;align=left;verticalAlign=top;" vertex="1" parent="1">
          <mxGeometry x="800" y="350" width="200" height="120" as="geometry" />
        </mxCell>

        <!-- Technology Stack Labels -->
        <mxCell id="tech-frontend" value="Vue.js + JavaScript" style="text;html=1;strokeColor=none;fillColor=none;align=center;verticalAlign=middle;whiteSpace=wrap;rounded=0;fontSize=10;" vertex="1" parent="1">
          <mxGeometry x="320" y="260" width="120" height="20" as="geometry" />
        </mxCell>

        <mxCell id="tech-backend" value="FastAPI + Python" style="text;html=1;strokeColor=none;fillColor=none;align=center;verticalAlign=middle;whiteSpace=wrap;rounded=0;fontSize=10;" vertex="1" parent="1">
          <mxGeometry x="560" y="260" width="120" height="20" as="geometry" />
        </mxCell>

        <!-- Connection Labels -->
        <mxCell id="label1" value="HTTPS" style="text;html=1;strokeColor=none;fillColor=none;align=center;verticalAlign=middle;whiteSpace=wrap;rounded=0;fontSize=9;" vertex="1" parent="1">
          <mxGeometry x="220" y="150" width="40" height="20" as="geometry" />
        </mxCell>

        <mxCell id="label2" value="REST API" style="text;html=1;strokeColor=none;fillColor=none;align=center;verticalAlign=middle;whiteSpace=wrap;rounded=0;fontSize=9;" vertex="1" parent="1">
          <mxGeometry x="460" y="190" width="60" height="20" as="geometry" />
        </mxCell>

        <mxCell id="label3" value="NoSQL" style="text;html=1;strokeColor=none;fillColor=none;align=center;verticalAlign=middle;whiteSpace=wrap;rounded=0;fontSize=9;" vertex="1" parent="1">
          <mxGeometry x="720" y="150" width="40" height="20" as="geometry" />
        </mxCell>

        <mxCell id="label4" value="AI API" style="text;html=1;strokeColor=none;fillColor=none;align=center;verticalAlign=middle;whiteSpace=wrap;rounded=0;fontSize=9;" vertex="1" parent="1">
          <mxGeometry x="720" y="250" width="40" height="20" as="geometry" />
        </mxCell>

      </root>
    </mxGraphModel>
  </diagram>
</mxfile>